<mxfile host="app.diagrams.net" modified="2024-02-27T07:42:16.738Z" agent="Mozilla/5.0 (Macintosh; Intel Mac OS X 10_15_7) AppleWebKit/537.36 (KHTML, like Gecko) Chrome/121.0.0.0 Safari/537.36" etag="bBVuMmQGvxmVkDhvKHGn" version="23.1.7" type="github">
  <diagram name="Página-1" id="ftc5jekLg3tbH1YQK8Mf">
    <mxGraphModel dx="1514" dy="1015" grid="1" gridSize="10" guides="1" tooltips="1" connect="1" arrows="1" fold="1" page="1" pageScale="1" pageWidth="1169" pageHeight="827" math="0" shadow="0">
      <root>
        <mxCell id="0" />
        <mxCell id="1" parent="0" />
        <mxCell id="PP8LRKLGsLknnvHvdWip-1" value="Usuário" style="shape=umlActor;html=1;verticalLabelPosition=bottom;verticalAlign=top;align=center;fillColor=#dae8fc;strokeColor=#6c8ebf;" vertex="1" parent="1">
          <mxGeometry x="10" y="410" width="30" height="60" as="geometry" />
        </mxCell>
        <mxCell id="PP8LRKLGsLknnvHvdWip-2" value="Consultar Preço&lt;br&gt;Combustível e Distância" style="ellipse;whiteSpace=wrap;html=1;" vertex="1" parent="1">
          <mxGeometry x="285" y="200" width="140" height="70" as="geometry" />
        </mxCell>
        <mxCell id="PP8LRKLGsLknnvHvdWip-3" value="" style="edgeStyle=none;html=1;endArrow=none;verticalAlign=bottom;rounded=0;exitX=1;exitY=0.3333333333333333;exitDx=0;exitDy=0;exitPerimeter=0;entryX=0;entryY=1;entryDx=0;entryDy=0;" edge="1" parent="1" source="PP8LRKLGsLknnvHvdWip-1" target="PP8LRKLGsLknnvHvdWip-2">
          <mxGeometry width="160" relative="1" as="geometry">
            <mxPoint x="420" y="350" as="sourcePoint" />
            <mxPoint x="580" y="350" as="targetPoint" />
          </mxGeometry>
        </mxCell>
        <mxCell id="PP8LRKLGsLknnvHvdWip-4" value="Filtrar Pesquisa de Tipo Combustível, Avaliação, Preço Máximo, etc." style="ellipse;whiteSpace=wrap;html=1;" vertex="1" parent="1">
          <mxGeometry x="280" y="390" width="150" height="80" as="geometry" />
        </mxCell>
        <mxCell id="PP8LRKLGsLknnvHvdWip-7" value="" style="edgeStyle=none;html=1;endArrow=none;verticalAlign=bottom;rounded=0;exitX=1;exitY=0.3333333333333333;exitDx=0;exitDy=0;exitPerimeter=0;entryX=0;entryY=0.5;entryDx=0;entryDy=0;" edge="1" parent="1" source="PP8LRKLGsLknnvHvdWip-1" target="PP8LRKLGsLknnvHvdWip-4">
          <mxGeometry width="160" relative="1" as="geometry">
            <mxPoint x="420" y="350" as="sourcePoint" />
            <mxPoint x="580" y="350" as="targetPoint" />
          </mxGeometry>
        </mxCell>
        <mxCell id="PP8LRKLGsLknnvHvdWip-8" value="Visualizar Detalhes do Posto (tipo de serviços oferecidos, horário de funcionamento, etc." style="ellipse;whiteSpace=wrap;html=1;" vertex="1" parent="1">
          <mxGeometry x="270" y="510" width="180" height="100" as="geometry" />
        </mxCell>
        <mxCell id="PP8LRKLGsLknnvHvdWip-9" value="" style="edgeStyle=none;html=1;endArrow=none;verticalAlign=bottom;rounded=0;exitX=1;exitY=0.3333333333333333;exitDx=0;exitDy=0;exitPerimeter=0;entryX=0;entryY=0.5;entryDx=0;entryDy=0;" edge="1" parent="1" source="PP8LRKLGsLknnvHvdWip-1" target="PP8LRKLGsLknnvHvdWip-8">
          <mxGeometry width="160" relative="1" as="geometry">
            <mxPoint x="420" y="350" as="sourcePoint" />
            <mxPoint x="580" y="350" as="targetPoint" />
          </mxGeometry>
        </mxCell>
        <mxCell id="PP8LRKLGsLknnvHvdWip-10" value="Registrar/Login de Usuário" style="ellipse;whiteSpace=wrap;html=1;" vertex="1" parent="1">
          <mxGeometry x="270" y="70" width="140" height="70" as="geometry" />
        </mxCell>
        <mxCell id="PP8LRKLGsLknnvHvdWip-11" value="" style="edgeStyle=none;html=1;endArrow=none;verticalAlign=bottom;rounded=0;exitX=1;exitY=0.3333333333333333;exitDx=0;exitDy=0;exitPerimeter=0;entryX=0.021;entryY=0.357;entryDx=0;entryDy=0;entryPerimeter=0;" edge="1" parent="1" source="PP8LRKLGsLknnvHvdWip-1" target="PP8LRKLGsLknnvHvdWip-10">
          <mxGeometry width="160" relative="1" as="geometry">
            <mxPoint x="420" y="350" as="sourcePoint" />
            <mxPoint x="580" y="350" as="targetPoint" />
          </mxGeometry>
        </mxCell>
        <mxCell id="PP8LRKLGsLknnvHvdWip-12" value="Atualizar Preço do Combustível, Servicos, etc. de qualquer posto" style="ellipse;whiteSpace=wrap;html=1;" vertex="1" parent="1">
          <mxGeometry x="495" y="280" width="180" height="100" as="geometry" />
        </mxCell>
        <mxCell id="PP8LRKLGsLknnvHvdWip-13" value="Administrador &lt;br&gt;do App" style="shape=umlActor;html=1;verticalLabelPosition=bottom;verticalAlign=top;align=center;fillColor=#d5e8d4;strokeColor=#82b366;" vertex="1" parent="1">
          <mxGeometry x="1100" y="20" width="30" height="60" as="geometry" />
        </mxCell>
        <mxCell id="PP8LRKLGsLknnvHvdWip-16" value="" style="edgeStyle=none;html=1;endArrow=none;verticalAlign=bottom;rounded=0;entryX=0;entryY=0.3333333333333333;entryDx=0;entryDy=0;entryPerimeter=0;exitX=1;exitY=0.5;exitDx=0;exitDy=0;" edge="1" parent="1" source="PP8LRKLGsLknnvHvdWip-12" target="PP8LRKLGsLknnvHvdWip-13">
          <mxGeometry width="160" relative="1" as="geometry">
            <mxPoint x="420" y="350" as="sourcePoint" />
            <mxPoint x="580" y="350" as="targetPoint" />
          </mxGeometry>
        </mxCell>
        <mxCell id="PP8LRKLGsLknnvHvdWip-17" value="Verificar se o Usuários esta cadastrado." style="ellipse;whiteSpace=wrap;html=1;" vertex="1" parent="1">
          <mxGeometry x="515" y="20" width="140" height="70" as="geometry" />
        </mxCell>
        <mxCell id="PP8LRKLGsLknnvHvdWip-18" value="&amp;lt;&amp;lt;include&amp;gt;&amp;gt;" style="edgeStyle=none;html=1;endArrow=open;verticalAlign=bottom;dashed=1;labelBackgroundColor=none;rounded=0;exitX=1;exitY=0.5;exitDx=0;exitDy=0;entryX=0;entryY=0.5;entryDx=0;entryDy=0;" edge="1" parent="1" source="PP8LRKLGsLknnvHvdWip-10" target="PP8LRKLGsLknnvHvdWip-17">
          <mxGeometry width="160" relative="1" as="geometry">
            <mxPoint x="420" y="350" as="sourcePoint" />
            <mxPoint x="470" y="40" as="targetPoint" />
          </mxGeometry>
        </mxCell>
        <mxCell id="PP8LRKLGsLknnvHvdWip-19" value="Exibir mensagem de usuário já cadastrado" style="ellipse;whiteSpace=wrap;html=1;" vertex="1" parent="1">
          <mxGeometry x="515" y="120" width="140" height="70" as="geometry" />
        </mxCell>
        <mxCell id="PP8LRKLGsLknnvHvdWip-20" value="&amp;lt;&amp;lt;extend&amp;gt;&amp;gt;" style="edgeStyle=none;html=1;startArrow=open;endArrow=none;startSize=12;verticalAlign=bottom;dashed=1;labelBackgroundColor=none;rounded=0;entryX=0;entryY=0.5;entryDx=0;entryDy=0;exitX=0.993;exitY=0.676;exitDx=0;exitDy=0;exitPerimeter=0;" edge="1" parent="1" source="PP8LRKLGsLknnvHvdWip-10" target="PP8LRKLGsLknnvHvdWip-19">
          <mxGeometry width="160" relative="1" as="geometry">
            <mxPoint x="430" y="140" as="sourcePoint" />
            <mxPoint x="580" y="350" as="targetPoint" />
          </mxGeometry>
        </mxCell>
        <mxCell id="PP8LRKLGsLknnvHvdWip-22" value="Usuário Dono &lt;br&gt;do Posto" style="shape=umlActor;html=1;verticalLabelPosition=bottom;verticalAlign=top;align=center;fillColor=#e1d5e7;strokeColor=#9673a6;" vertex="1" parent="1">
          <mxGeometry x="1100" y="670" width="30" height="60" as="geometry" />
        </mxCell>
        <mxCell id="PP8LRKLGsLknnvHvdWip-23" value="Cadastro de Qualquer Posto de Combustível" style="ellipse;whiteSpace=wrap;html=1;" vertex="1" parent="1">
          <mxGeometry x="720" y="60" width="140" height="70" as="geometry" />
        </mxCell>
        <mxCell id="PP8LRKLGsLknnvHvdWip-24" value="" style="edgeStyle=none;html=1;endArrow=none;verticalAlign=bottom;rounded=0;entryX=0;entryY=0.3333333333333333;entryDx=0;entryDy=0;entryPerimeter=0;exitX=1;exitY=0.5;exitDx=0;exitDy=0;" edge="1" parent="1" source="PP8LRKLGsLknnvHvdWip-23" target="PP8LRKLGsLknnvHvdWip-13">
          <mxGeometry width="160" relative="1" as="geometry">
            <mxPoint x="420" y="350" as="sourcePoint" />
            <mxPoint x="580" y="350" as="targetPoint" />
          </mxGeometry>
        </mxCell>
        <mxCell id="PP8LRKLGsLknnvHvdWip-25" value="Cadastra e Atualiza informações do Posto a qual é administrador" style="ellipse;whiteSpace=wrap;html=1;" vertex="1" parent="1">
          <mxGeometry x="730" y="490" width="140" height="70" as="geometry" />
        </mxCell>
        <mxCell id="PP8LRKLGsLknnvHvdWip-26" value="" style="edgeStyle=none;html=1;endArrow=none;verticalAlign=bottom;rounded=0;entryX=0;entryY=0.3333333333333333;entryDx=0;entryDy=0;entryPerimeter=0;exitX=1;exitY=0.5;exitDx=0;exitDy=0;" edge="1" parent="1" source="PP8LRKLGsLknnvHvdWip-25" target="PP8LRKLGsLknnvHvdWip-22">
          <mxGeometry width="160" relative="1" as="geometry">
            <mxPoint x="420" y="350" as="sourcePoint" />
            <mxPoint x="580" y="350" as="targetPoint" />
          </mxGeometry>
        </mxCell>
        <mxCell id="PP8LRKLGsLknnvHvdWip-27" value="" style="edgeStyle=none;html=1;endArrow=none;verticalAlign=bottom;rounded=0;entryX=0;entryY=0.5;entryDx=0;entryDy=0;exitX=1;exitY=0.3333333333333333;exitDx=0;exitDy=0;exitPerimeter=0;" edge="1" parent="1" source="PP8LRKLGsLknnvHvdWip-1" target="PP8LRKLGsLknnvHvdWip-12">
          <mxGeometry width="160" relative="1" as="geometry">
            <mxPoint x="420" y="350" as="sourcePoint" />
            <mxPoint x="580" y="350" as="targetPoint" />
          </mxGeometry>
        </mxCell>
      </root>
    </mxGraphModel>
  </diagram>
</mxfile>
